<?xml version="1.0" encoding="UTF-8"?>
<svg version="1.1" xmlns="http://www.w3.org/2000/svg" width="194" height="527">
<path d="M0 0 C64.02 0 128.04 0 194 0 C194 173.91 194 347.82 194 527 C129.98 527 65.96 527 0 527 C0 353.09 0 179.18 0 0 Z " fill="#FDFDFD" transform="translate(0,0)"/>
<path d="M0 0 C0 0.66 0 1.32 0 2 C0.85271484 2.29970703 0.85271484 2.29970703 1.72265625 2.60546875 C4.88149985 4.53978636 6.51331871 7.23760304 8.4375 10.3125 C8.83219482 10.93914551 9.22688965 11.56579102 9.63354492 12.21142578 C22.05742434 32.53025758 24.14426252 56.56638889 24.25 79.8125 C24.2593457 81.12355713 24.26869141 82.43461426 24.27832031 83.78540039 C24.25515292 90.82784308 23.79035411 97.48884608 22.48583984 104.41088867 C21.8733705 107.67482706 21.53682301 110.94870564 21.1875 114.25 C18.33353561 135.36504478 8.618412 153.81812221 -5 170 C-5.88549315 171.07024922 -6.77090967 172.14056185 -7.65625 173.2109375 C-12.16400029 178.57516034 -17.33868205 183.12141485 -22.55859375 187.7734375 C-24.61342736 189.64744575 -26.57048137 191.56186889 -28.5 193.5625 C-31 196 -31 196 -33 196 C-32.10675129 205.97285908 -31.10971726 215.87429833 -29.4375 225.75 C-28.0175601 234.16257349 -27.34098231 242.47544219 -27 251 C-26.04480469 250.96519531 -25.08960937 250.93039063 -24.10546875 250.89453125 C-15.85664471 250.72182407 -8.84273291 251.14913796 -1 254 C-0.02417969 254.35191406 0.95164063 254.70382812 1.95703125 255.06640625 C19.99428927 262.08218183 31.84538515 273.30862471 40.31640625 290.703125 C44.59926894 300.75441899 45.37314678 310.77249082 45.37060547 321.60229492 C45.37495755 323.66735755 45.41133464 325.73023795 45.44921875 327.79492188 C45.54464088 339.03548142 44.27328608 350.36118071 38 360 C37.57460937 360.76699219 37.14921875 361.53398437 36.7109375 362.32421875 C32.92590085 369.01997072 28.38288718 374.52167156 23 380 C22.45859375 380.55429687 21.9171875 381.10859375 21.359375 381.6796875 C13.61500018 388.91559326 3.1349684 394.20414665 -7 397 C-6.690625 398.19625 -6.38125 399.3925 -6.0625 400.625 C-5.16490667 404.62053695 -4.78721134 408.47556258 -4.5625 412.5625 C-4.16957615 419.08082599 -3.12953712 425.2449715 -1.81640625 431.625 C0.34118895 442.77144367 1.38502559 453.71053572 1.4375 465.0625 C1.47037109 466.32126953 1.50324219 467.58003906 1.53710938 468.87695312 C1.60960693 481.64311421 -2.34698071 491.87826482 -10 502 C-10.7425 503.051875 -11.485 504.10375 -12.25 505.1875 C-16.02735734 509.05070637 -20.31627943 511.37562959 -25 514 C-26.0725 514.721875 -27.145 515.44375 -28.25 516.1875 C-40.14201103 522.73632635 -57.61319199 522.77317505 -70.66015625 520.30859375 C-84.87485696 515.92496347 -95.91820412 507.02598059 -103 494 C-107.71410025 483.68195843 -110.50735878 471.60495996 -106.75 460.5625 C-102.80754892 452.53679602 -97.23001589 445.00379151 -89 441 C-82.60425337 438.89769439 -72.52877446 438.63832431 -66.125 441 C-58.28600533 446.01695659 -51.52935986 451.74594784 -49 461 C-48.00356838 469.83443389 -47.98133347 478.31568108 -53 486 C-53.36222656 486.57105469 -53.72445312 487.14210938 -54.09765625 487.73046875 C-57.8425371 492.87174585 -63.15443943 495.05147981 -69 497 C-71.06145107 497.068991 -73.12501401 497.08467727 -75.1875 497.0625 C-76.27417969 497.05347656 -77.36085937 497.04445313 -78.48046875 497.03515625 C-79.72763672 497.01775391 -79.72763672 497.01775391 -81 497 C-77.27151389 503.21414351 -70.43660974 505.80151985 -63.671875 507.62890625 C-60.00972847 508.13753771 -56.37699866 508.18425506 -52.6875 508.1875 C-51.96626953 508.19974609 -51.24503906 508.21199219 -50.50195312 508.22460938 C-40.07113097 508.25267437 -30.48321858 504.95228924 -22.66015625 497.88671875 C-18.46913787 493.36791123 -15.15080589 488.78743421 -13 483 C-12.70222656 482.20980469 -12.40445313 481.41960937 -12.09765625 480.60546875 C-6.13450152 461.39696573 -10.94960974 440.14302632 -13.86499023 420.79077148 C-14.07175636 419.40962662 -14.07175636 419.40962662 -14.28269958 418.00057983 C-14.54490817 416.26191226 -14.81213733 414.52399141 -15.08534241 412.78701782 C-15.79334646 408.1285667 -16.13248442 403.71226569 -16 399 C-17.24523437 399.32226562 -18.49046875 399.64453125 -19.7734375 399.9765625 C-34.11024917 403.14197813 -50.30059739 402.15256549 -64 397 C-64.63808594 396.76394043 -65.27617188 396.52788086 -65.93359375 396.28466797 C-80.86306026 390.64246462 -93.5577417 382.0955232 -105 371 C-105.67160156 370.401875 -106.34320313 369.80375 -107.03515625 369.1875 C-124.01375755 353.525331 -136.02038775 326.44097798 -137.12060547 303.48339844 C-137.69908094 283.71939039 -135.58781092 267.22702032 -128 249 C-127.54173828 247.7934375 -127.54173828 247.7934375 -127.07421875 246.5625 C-122.15118437 234.24324809 -113.71674843 222.85243308 -105 213 C-104.22785156 212.11828125 -103.45570312 211.2365625 -102.66015625 210.328125 C-91.51312603 197.89291717 -79.84709834 185.3188694 -66.6328125 175.06640625 C-64.5505051 173.43207299 -62.54934567 171.76432666 -60.5546875 170.02734375 C-59.96413574 169.51494141 -59.37358398 169.00253906 -58.76513672 168.47460938 C-57.61378247 167.47199162 -56.46674257 166.4643914 -55.32470703 165.45117188 C-51.33258748 162 -51.33258748 162 -48 162 C-48.30822621 159.7077546 -48.62170874 157.41621545 -48.9375 155.125 C-49.19853516 153.21074219 -49.19853516 153.21074219 -49.46484375 151.2578125 C-49.81433227 148.12440546 -49.81433227 148.12440546 -51 146 C-55.01266903 117.09120923 -55.4219979 86.32528927 -48 58 C-47.74613525 56.99976807 -47.49227051 55.99953613 -47.23071289 54.96899414 C-45.79918703 49.48155326 -44.29578772 45.69400069 -41 41 C-40.34141341 39.45135706 -39.71967711 37.88679044 -39.125 36.3125 C-33.4372575 21.64295564 -24.7609097 9.10485075 -11 1 C-7.34239123 -0.237434 -3.84283629 -0.0739007 0 0 Z " fill="#060606" transform="translate(145,2)"/>
<path d="M0 0 C2.07946603 7.12959781 2.9027339 14.37355279 3.74121094 21.73242188 C4.01123381 24.09843357 4.29058502 26.46324254 4.5703125 28.828125 C4.755803 30.42701446 4.94071188 32.02597151 5.125 33.625 C5.21265625 34.37056152 5.3003125 35.11612305 5.390625 35.88427734 C5.8470369 39.94505503 6.09022353 43.91416297 6 48 C5.32195312 48.20753906 4.64390625 48.41507812 3.9453125 48.62890625 C-3.33160216 51.03774642 -8.98480146 54.28239446 -15 59 C-15.68835938 59.51175781 -16.37671875 60.02351563 -17.0859375 60.55078125 C-29.470855 70.41465823 -37.40932811 86.55966452 -39.25366211 102.14331055 C-40.40853236 118.76789881 -36.3857237 132.87570644 -26.421875 146.25 C-20.66880663 152.78251634 -13.58043191 157.24718803 -5 159 C-3.68 159 -2.36 159 -1 159 C-1 158.01 -1 157.02 -1 156 C-3.03336 154.54397871 -3.03336 154.54397871 -5.625 153.25 C-15.2092308 147.75395805 -20.01271317 139.48125636 -23 129 C-24.06474738 115.64368357 -22.54857008 106.38854802 -14 96 C-6.62205505 87.42599476 -0.23200402 83.41419905 11 82 C15.10939199 105.54212756 18.15383013 129.18464419 21.01531982 152.9069519 C21.5320548 157.19067831 22.05645374 161.47259481 22.61962891 165.75048828 C22.76142326 166.83808189 22.76142326 166.83808189 22.90608215 167.94764709 C23.15445105 169.84127901 23.40768581 171.73427103 23.66137695 173.62719727 C24.01081165 177.1076878 24.05879351 180.50443349 24 184 C-0.55956375 188.11161605 -21.22593569 186.57680036 -42.4140625 172.3828125 C-44.71452205 170.68388654 -46.85840006 168.89535326 -49 167 C-49.88429688 166.22140625 -50.76859375 165.4428125 -51.6796875 164.640625 C-64.62082459 152.52399249 -74.36521064 135.46538193 -75.10693359 117.39477539 C-75.17056384 114.28325618 -75.18561271 111.17464754 -75.1875 108.0625 C-75.19974609 107.00353516 -75.21199219 105.94457031 -75.22460938 104.85351562 C-75.23524137 99.17248688 -74.89357683 94.41575899 -73 89 C-72.60997328 87.64845727 -72.22484803 86.29549372 -71.84375 84.94140625 C-63.35943986 56.69039024 -41.18059821 33.13219545 -18.5 15.05859375 C-15.68672276 12.74203577 -13.16258594 10.25367297 -10.62890625 7.640625 C-3.04285714 0 -3.04285714 0 0 0 Z " fill="#F9F9F9" transform="translate(103,208)"/>
<path d="M0 0 C3.66013662 2.53913537 6.93671727 5.26253133 8.40234375 9.62109375 C10.39753945 20.95303048 8.30080612 31.12276725 4.8046875 41.90625 C4.40765625 43.15148437 4.010625 44.39671875 3.6015625 45.6796875 C1.34736334 52.37094956 -1.11635271 58.161537 -5.1953125 63.90625 C-6.15050781 65.34871094 -6.15050781 65.34871094 -7.125 66.8203125 C-16.68504991 81.07533354 -28.23805775 95.71409662 -42.1953125 105.90625 C-42.8553125 105.90625 -43.5153125 105.90625 -44.1953125 105.90625 C-46.41417377 95.78134907 -47.29089467 86.07169906 -47.3828125 75.71875 C-47.39586426 74.86297363 -47.40891602 74.00719727 -47.42236328 73.12548828 C-47.42932831 68.00619425 -46.78830039 63.81942143 -45.1953125 58.90625 C-44.7640919 56.76329396 -44.34768384 54.61730978 -43.9453125 52.46875 C-40.03890811 34.12225376 -31.74978349 12.46283619 -15.8203125 1.34375 C-10.71177027 -1.45378503 -5.35951862 -2.6702228 0 0 Z " fill="#F9F9F9" transform="translate(149.1953125,48.09375)"/>
<path d="M0 0 C12.44492192 0.47319095 21.26479204 4.30392344 31 12 C31.639375 12.50015625 32.27875 13.0003125 32.9375 13.515625 C39.80689655 19.58768088 45.5637687 30.42885236 46.17700195 39.66625977 C46.24382526 42.96509498 46.2849284 46.26309887 46.3125 49.5625 C46.34150391 50.69236328 46.37050781 51.82222656 46.40039062 52.98632812 C46.50175181 66.52974232 41.31262876 76.25874094 33.8125 87.1875 C28.85372573 92.14627427 22.45863656 96.21445696 16 99 C15.01 99 14.02 99 13 99 C12.92562714 98.40200089 12.85125427 97.80400177 12.77462769 97.18788147 C9.36115214 69.77250622 5.90612144 42.37336178 1.77880859 15.05493164 C1.65802444 14.25235428 1.5372403 13.44977692 1.41279602 12.62287903 C1.1895126 11.14367676 0.96407981 9.66479656 0.73600769 8.18632507 C0.31660343 5.41934547 0 2.80424974 0 0 Z " fill="#FAFAFA" transform="translate(123,289)"/>
<path d="M0 0 C0.66 0.33 1.32 0.66 2 1 C-2.24860632 6.2042199 -6.36629298 10.32084439 -12 14 C-9.3129633 7.95416742 -5.07578221 4.03755403 0 0 Z " fill="#252525" transform="translate(129,6)"/>
<path d="M0 0 C0 3 0 3 -2.125 5.375 C-5.01789329 8.01633735 -7.96250644 10.52762152 -11 13 C-11.66 12.67 -12.32 12.34 -13 12 C-8.84792208 7.7373638 -4.63678779 3.73204871 0 0 Z " fill="#D5D5D5" transform="translate(100,209)"/>
<path d="M0 0 C0.33 0.66 0.66 1.32 1 2 C-3.65201794 9.48071749 -3.65201794 9.48071749 -6.95703125 10.75390625 C-8.875 11 -8.875 11 -12 11 C-9.4505484 8.96043872 -6.90268725 6.92531812 -4.3125 4.9375 C-1.81828913 3.03243982 -1.81828913 3.03243982 0 0 Z " fill="#282828" transform="translate(157,374)"/>
<path d="M0 0 C1.65 0 3.3 0 5 0 C5.66 5.28 6.32 10.56 7 16 C5.03723968 13.05585952 4.74523621 12.19795067 4.5 8.875 C4.335 7.59625 4.17 6.3175 4 5 C3.34 4.67 2.68 4.34 2 4 C2 3.01 2 2.02 2 1 C1.34 0.67 0.68 0.34 0 0 Z " fill="#D2D2D2" transform="translate(109,290)"/>
<path d="M0 0 C0.33 0.66 0.66 1.32 1 2 C0.01 3.485 0.01 3.485 -1 5 C-1.66 5 -2.32 5 -3 5 C-3 5.66 -3 6.32 -3 7 C-4.53125 8.5078125 -4.53125 8.5078125 -6.5 10.125 C-7.1496875 10.66382813 -7.799375 11.20265625 -8.46875 11.7578125 C-8.9740625 12.16773438 -9.479375 12.57765625 -10 13 C-10.66 12.67 -11.32 12.34 -12 12 C-8.04 8.04 -4.08 4.08 0 0 Z " fill="#1B1B1B" transform="translate(57,197)"/>
<path d="M0 0 C3.3 0 6.6 0 10 0 C10 0.33 10 0.66 10 1 C8.35 1.33 6.7 1.66 5 2 C5.33 3.32 5.66 4.64 6 6 C2.21503862 4.48601545 1.9927802 3.9855604 0 0 Z " fill="#A8A8A8" transform="translate(64,499)"/>
<path d="M0 0 C-0.125 1.8125 -0.125 1.8125 -1 4 C-3.8125 5.625 -3.8125 5.625 -7 7 C-7.78375 7.391875 -8.5675 7.78375 -9.375 8.1875 C-9.91125 8.455625 -10.4475 8.72375 -11 9 C-3.8 0 -3.8 0 0 0 Z " fill="#D2D2D2" transform="translate(136,49)"/>
<path d="M0 0 C0.99 0.33 1.98 0.66 3 1 C2.67 2.32 2.34 3.64 2 5 C-0.64 4.67 -3.28 4.34 -6 4 C-6 3.67 -6 3.34 -6 3 C-4.02 3 -2.04 3 0 3 C0 2.01 0 1.02 0 0 Z " fill="#3D3D3D" transform="translate(100,363)"/>
<path d="M0 0 C0.99 0.33 1.98 0.66 3 1 C1.02 3.31 -0.96 5.62 -3 8 C-3.33 7.01 -3.66 6.02 -4 5 C-3.67 4.34 -3.34 3.68 -3 3 C-2.34 3 -1.68 3 -1 3 C-0.67 2.01 -0.34 1.02 0 0 Z " fill="#DDDDDD" transform="translate(44,207)"/>
<path d="M0 0 C0.33 0.66 0.66 1.32 1 2 C-0.25 4.625 -0.25 4.625 -2 7 C-2.99 7 -3.98 7 -5 7 C-4.67 6.01 -4.34 5.02 -4 4 C-3.34 4 -2.68 4 -2 4 C-1.34 2.68 -0.68 1.36 0 0 Z " fill="#CFCFCF" transform="translate(135,503)"/>
</svg>
