<?xml version="1.0" encoding="UTF-8"?>
<svg version="1.1" xmlns="http://www.w3.org/2000/svg" width="512" height="512">
<path d="M0 0 C1.60450516 0.00456207 1.60450516 0.00456207 3.24142456 0.00921631 C19.74543158 0.07844388 35.64696842 0.8478729 51.8125 4.4375 C53.34535645 4.76693604 53.34535645 4.76693604 54.90917969 5.10302734 C111.58254402 17.53386618 165.18946938 49.13431979 200.8125 95.4375 C201.97072266 96.87029297 201.97072266 96.87029297 203.15234375 98.33203125 C231.12803567 133.46737892 248.34221171 176.15778264 254.8125 220.4375 C254.92964355 221.2227002 255.04678711 222.00790039 255.16748047 222.81689453 C258.7029806 247.69147566 257.77682109 273.69822971 253.8125 298.4375 C253.6568457 299.41525391 253.50119141 300.39300781 253.34082031 301.40039062 C245.42000168 348.79882227 223.21617041 392.768287 190.90625 428.12109375 C189.11215017 430.10598405 187.39848419 432.13170011 185.6875 434.1875 C147.14419887 478.12332721 87.89553666 504.29556819 30.8125 511.4375 C30.13123047 511.5317627 29.44996094 511.62602539 28.74804688 511.72314453 C19.61100265 512.8344604 10.37742486 512.68141587 1.1875 512.6875 C0.27276917 512.68817474 -0.64196167 512.68884949 -1.58441162 512.68954468 C-15.98541702 512.67269053 -29.99415162 512.05569048 -44.1875 509.4375 C-45.10450684 509.27652832 -46.02151367 509.11555664 -46.96630859 508.94970703 C-70.34234624 504.74613903 -92.91533112 496.95217318 -114.1875 486.4375 C-114.93177246 486.07156738 -115.67604492 485.70563477 -116.44287109 485.32861328 C-131.4206624 477.88408897 -145.00233894 468.71093799 -158.1875 458.4375 C-159.05375 457.76589844 -159.92 457.09429687 -160.8125 456.40234375 C-209.76239108 417.43182035 -242.4480433 360.97323274 -253.1875 299.4375 C-253.37296387 298.42953369 -253.55842773 297.42156738 -253.74951172 296.38305664 C-255.63967188 284.57925093 -255.55969058 272.73548536 -255.55810547 260.80834961 C-255.56244563 257.17057271 -255.59877359 253.53404519 -255.63671875 249.89648438 C-255.73654072 229.29328176 -253.63231279 208.98457557 -247.9375 189.125 C-247.4892688 187.52313843 -247.4892688 187.52313843 -247.03198242 185.88891602 C-238.039594 154.58682905 -223.47959461 124.96028079 -203.1875 99.4375 C-202.47207031 98.53 -201.75664062 97.6225 -201.01953125 96.6875 C-188.91505575 81.60510929 -175.49996332 67.28951963 -160.1875 55.4375 C-159.25421875 54.71046875 -158.3209375 53.9834375 -157.359375 53.234375 C-127.50000586 30.40073978 -93.97253152 14.39135608 -57.375 5.75 C-56.58335449 5.55946045 -55.79170898 5.3689209 -54.97607422 5.17260742 C-36.77954763 1.09432114 -18.59763635 -0.11284379 0 0 Z M-79.1875 130.4375 C-79.95449219 131.06527344 -80.72148437 131.69304687 -81.51171875 132.33984375 C-104.29910819 151.48125088 -118.79651177 181.42829059 -121.96511841 210.74780273 C-122.39434838 215.93932364 -122.42867309 221.14106346 -122.50390625 226.34765625 C-122.52468735 227.55570419 -122.54546844 228.76375214 -122.56687927 230.00840759 C-122.63187039 233.83888473 -122.69102365 237.66942601 -122.75 241.5 C-122.79323326 244.10873039 -122.83684903 246.71745448 -122.88085938 249.32617188 C-122.98749958 255.69654825 -123.08935639 262.06698737 -123.1875 268.4375 C-123.94657654 268.84424957 -124.70565308 269.25099915 -125.48773193 269.67007446 C-126.48145813 270.20643524 -127.47518433 270.74279602 -128.49902344 271.29541016 C-129.97795074 272.09115952 -129.97795074 272.09115952 -131.48675537 272.90298462 C-136.40567329 275.69782687 -140.20505766 279.46871955 -144.1875 283.4375 C-144.82558594 284.05238281 -145.46367187 284.66726563 -146.12109375 285.30078125 C-157.80188689 297.44984672 -161.69552891 313.39915969 -161.53491211 329.74511719 C-161.35521852 336.38962855 -160.81447077 342.26676329 -158.1875 348.4375 C-157.92936523 349.04400391 -157.67123047 349.65050781 -157.40527344 350.27539062 C-150.97302325 365.02041596 -142.15456534 375.30610939 -128.1875 383.4375 C-127.08792969 383.76621094 -125.98835938 384.09492188 -124.85546875 384.43359375 C-123.53482422 384.93052734 -123.53482422 384.93052734 -122.1875 385.4375 C-121.375 387.28515625 -121.375 387.28515625 -121.1875 389.5 C-120.10312634 396.04835356 -117.10692158 401.03206109 -111.96875 405.265625 C-103.55637207 411.04212451 -96.41972771 412.65331675 -86.1875 411.4375 C-77.66063785 408.66108255 -71.2328991 404.30849797 -67.08655548 396.31507111 C-64.11173942 389.49503223 -63.61549468 383.55384394 -63.66992188 376.16992188 C-63.6629126 374.98483536 -63.65590332 373.79974884 -63.64868164 372.57875061 C-63.63418741 369.35747344 -63.63745102 366.1368639 -63.65019798 362.91559792 C-63.66040613 359.52636053 -63.65091082 356.13716415 -63.64465332 352.7479248 C-63.63739943 347.05892058 -63.64690483 341.37012483 -63.66601562 335.68115234 C-63.68778026 329.12695909 -63.68072726 322.57326375 -63.65871 316.01908255 C-63.64049114 310.36692373 -63.63802915 304.71491381 -63.64846468 299.06273508 C-63.65466422 295.69782266 -63.65563405 292.3331434 -63.64231873 288.96824646 C-63.63211147 285.21351915 -63.64771469 281.45973552 -63.66992188 277.70507812 C-63.66182495 276.60660049 -63.65372803 275.50812286 -63.64538574 274.37635803 C-63.73331077 266.31422208 -65.2823749 259.47782104 -70.046875 252.8515625 C-76.87021885 246.39476191 -83.53876405 242.28880102 -93.125 242.3125 C-94.16527344 242.30992187 -95.20554687 242.30734375 -96.27734375 242.3046875 C-98.78299327 242.41903929 -100.78855484 242.78871854 -103.1875 243.4375 C-102.46542438 217.60421734 -100.99946689 194.36942517 -88.1875 171.4375 C-87.630625 170.4371875 -87.07375 169.436875 -86.5 168.40625 C-72.17046202 144.43183068 -48.1921878 130.15469595 -21.73046875 123.234375 C5.86706154 117.02721273 33.25925127 123.15946051 57.07421875 137.62890625 C79.62293429 152.52199511 95.09543729 175.03011508 100.8125 201.4375 C103.54489695 215.23196461 103.43693661 229.42715346 103.8125 243.4375 C103.20817139 243.27741455 102.60384277 243.1173291 101.98120117 242.95239258 C94.84170767 241.25733553 87.43884688 241.75225741 80.91015625 245.10546875 C73.07768142 250.0791632 67.17160673 256.28839163 64.8125 265.4375 C64.51135267 269.37502662 64.51875753 273.30339393 64.52197266 277.25097656 C64.51525543 278.43547897 64.50853821 279.61998138 64.50161743 280.84037781 C64.48590686 284.07823422 64.47926422 287.31593641 64.47798586 290.55382633 C64.47656037 292.58115031 64.47228321 294.60844772 64.46699142 296.63576508 C64.44850651 303.72122391 64.44031862 310.80660769 64.44189453 317.89208984 C64.44309458 324.47570478 64.42201551 331.05899118 64.3904072 337.64252305 C64.36416866 343.31155876 64.35353044 348.98048769 64.35480535 354.64958358 C64.35531289 358.02800422 64.34974635 361.40613284 64.32844925 364.78449249 C64.30877693 368.5587511 64.31463363 372.33217221 64.32666016 376.10644531 C64.31542114 377.21120712 64.30418213 378.31596893 64.29260254 379.45420837 C64.36584812 388.53477001 66.45350043 397.07340296 72.875 403.83203125 C80.2061617 409.90684467 87.8581828 412.48357102 97.34765625 412.01171875 C105.32127261 410.69027387 111.70511934 407.30313 116.875 401.0625 C120.17880734 396.29212453 122.8125 391.35814255 122.8125 385.4375 C123.59625 385.251875 124.38 385.06625 125.1875 384.875 C141.27186904 378.49671572 151.49708806 364.9788654 158.55078125 349.80859375 C164.64184375 333.53433078 163.27251852 315.35895861 156.59765625 299.5625 C150.65488546 287.43580251 139.76599438 276.33184591 127.66479492 270.34375 C126.94361984 269.98603516 126.22244476 269.62832031 125.47941589 269.25976562 C124.92933365 268.98841797 124.3792514 268.71707031 123.8125 268.4375 C123.80370064 267.44509811 123.80370064 267.44509811 123.79472351 266.43264771 C123.73005962 259.45499955 123.64546705 252.47778207 123.55004883 245.50048828 C123.51709326 242.90744762 123.48897329 240.31434028 123.46606445 237.72119141 C123.24121719 211.2122016 123.24121719 211.2122016 117.25 185.5 C117.00024414 184.77530518 116.75048828 184.05061035 116.49316406 183.30395508 C111.2958223 168.94053218 103.68899301 156.04476107 93.8125 144.4375 C93.07257813 143.54675781 92.33265625 142.65601563 91.5703125 141.73828125 C74.34284344 121.72131098 50.27672591 109.22904737 24.8125 103.4375 C23.75160156 103.19128906 22.69070313 102.94507812 21.59765625 102.69140625 C-14.29855326 95.85178683 -51.6088111 107.11989608 -79.1875 130.4375 Z " fill="#3483BB" transform="translate(255.1875,-0.4375)"/>
<path d="M0 0 C4.00996594 2.00498297 5.97968644 3.75868789 9 7 C9.825 7.86625 10.65 8.7325 11.5 9.625 C19.84592673 19.7932968 21.0718313 32.35914718 20 45 C17.93811566 56.18933415 11.39847349 66.51057783 2 73 C1.34 73 0.68 73 0 73 C0 48.91 0 24.82 0 0 Z " fill="#4475B4" transform="translate(378,290)"/>
<path d="M0 0 C0 24.09 0 48.18 0 73 C-8.56660021 69.57335992 -13.07245611 62.69566808 -16.9921875 54.5546875 C-21.11239324 44.11044503 -21.80457801 31.92065218 -17.98046875 21.23828125 C-15.08576749 14.63005885 -8.46685213 0 0 0 Z " fill="#4475B4" transform="translate(133,290)"/>
</svg>
