<?xml version="1.0" encoding="utf-8"?>
<!-- Svg Vector Icons : http://www.onlinewebfonts.com/icon -->
<!DOCTYPE svg PUBLIC "-//W3C//DTD SVG 1.1//EN" "http://www.w3.org/Graphics/SVG/1.1/DTD/svg11.dtd">
<svg version="1.1" xmlns="http://www.w3.org/2000/svg" xmlns:xlink="http://www.w3.org/1999/xlink" x="0px" y="0px" viewBox="0 0 256 256" enable-background="new 0 0 256 256" xml:space="preserve">
<metadata> Svg Vector Icons : http://www.onlinewebfonts.com/icon </metadata>
<g> <path fill="#f0e9d8" d="M163.1,194.5c0-2.1,1.7-3.8,3.8-3.8h43.9V17.5H45.1v220.9h118V194.5z M184.5,143.1H126 c-2.1,0-3.8-1.7-3.8-3.8c0-2.1,1.7-3.8,3.8-3.8h58.5c2.1,0,3.8,1.7,3.8,3.8C188.3,141.4,186.6,143.1,184.5,143.1z M188.3,154.4 c0,2.1-1.7,3.8-3.8,3.8h-77.8c-2.1,0-3.8-1.7-3.8-3.8c0-2.1,1.7-3.8,3.8-3.8h77.8C186.6,150.6,188.3,152.3,188.3,154.4z  M184.5,102.9h-5c-2.1,0-3.8-1.7-3.8-3.8c0-2.1,1.7-3.8,3.8-3.8h5c2.1,0,3.8,1.7,3.8,3.8C188.3,101.2,186.6,102.9,184.5,102.9z  M184.5,87.8h-5c-2.1,0-3.8-1.7-3.8-3.8c0-2.1,1.7-3.8,3.8-3.8h5c2.1,0,3.8,1.7,3.8,3.8C188.3,86.1,186.6,87.8,184.5,87.8z  M160.6,53.9c0-2.1,1.7-3.8,3.8-3.8s3.8,1.7,3.8,3.8c0,5.6,1.7,5.8,6.7,6.3c5,0.5,13.4,1.5,13.4,13.8c0,2.1-1.7,3.8-3.8,3.8 s-3.8-1.7-3.8-3.8c0-5.6-1.7-5.8-6.7-6.3c-1.7-0.2-3.8-0.4-5.9-1.1v38.8c0,6.9-6.2,12.6-13.8,12.6c-7.6,0-13.8-5.6-13.8-12.6 s6.2-12.6,13.8-12.6c2.3,0,4.4,0.5,6.3,1.4V53.9L160.6,53.9z M71.5,65.2h77.8c2.1,0,3.8,1.7,3.8,3.8s-1.7,3.8-3.8,3.8H71.5 c-2.1,0-3.8-1.7-3.8-3.8S69.4,65.2,71.5,65.2z M71.5,80.3h77.8c2.1,0,3.8,1.7,3.8,3.8c0,2.1-1.7,3.8-3.8,3.8H71.5 c-2.1,0-3.8-1.7-3.8-3.8C67.7,82,69.4,80.3,71.5,80.3z M71.5,95.4h60.8c2.1,0,3.8,1.7,3.8,3.8c0,2.1-1.7,3.8-3.8,3.8H71.5 c-2.1,0-3.8-1.7-3.8-3.8C67.7,97,69.4,95.4,71.5,95.4z M71.5,135.5h5c2.1,0,3.8,1.7,3.8,3.8c0,2.1-1.7,3.8-3.8,3.8h-5 c-2.1,0-3.8-1.7-3.8-3.8C67.7,137.2,69.4,135.5,71.5,135.5z M71.5,150.6h5c2.1,0,3.8,1.7,3.8,3.8c0,2.1-1.7,3.8-3.8,3.8h-5 c-2.1,0-3.8-1.7-3.8-3.8C67.7,152.3,69.4,150.6,71.5,150.6z M95.4,136.9v38.8c0,6.9-6.2,12.6-13.8,12.6s-13.8-5.6-13.8-12.6 s6.2-12.6,13.8-12.6c2.3,0,4.4,0.5,6.3,1.4v-40.3c0-2.1,1.7-3.8,3.8-3.8c2.1,0,3.8,1.7,3.8,3.8c0,5.6,1.7,5.8,6.7,6.3 c5,0.5,13.4,1.5,13.4,13.8c0,2.1-1.7,3.8-3.8,3.8s-3.8-1.7-3.8-3.8c0-5.6-1.7-5.8-6.7-6.3C99.5,137.8,97.4,137.6,95.4,136.9z  M102.9,169.4c0-2.1,1.7-3.8,3.8-3.8h77.8c2.1,0,3.8,1.7,3.8,3.8c0,2.1-1.7,3.8-3.8,3.8h-77.8C104.6,173.2,102.9,171.5,102.9,169.4 C102.9,169.4,102.9,169.4,102.9,169.4z"/> <path fill="#f7c776" d="M170.7,198.3v34.8l34.8-34.8H170.7z"/> <path fill="#264a6a" d="M81.6,170.7c-3.5,0-6.3,2.3-6.3,5s2.8,5,6.3,5s6.3-2.3,6.3-5S85,170.7,81.6,170.7z"/> <path fill="#082846" d="M107.9,144.3c0,2.1,1.7,3.8,3.8,3.8s3.8-1.7,3.8-3.8c0-12.3-8.4-13.2-13.4-13.8c-5-0.5-6.7-0.7-6.7-6.3 c0-2.1-1.7-3.8-3.8-3.8c-2.1,0-3.8,1.7-3.8,3.8v40.3c-1.9-0.9-4-1.4-6.3-1.4c-7.6,0-13.8,5.6-13.8,12.6s6.2,12.6,13.8,12.6 s13.8-5.6,13.8-12.6v-38.8c2,0.7,4.2,0.9,5.9,1.1C106.2,138.6,107.9,138.7,107.9,144.3z M87.8,175.7c0,2.8-2.8,5-6.3,5 s-6.3-2.3-6.3-5s2.8-5,6.3-5S87.8,172.9,87.8,175.7z"/> <path fill="#082846" d="M71.5,158.1h5c2.1,0,3.8-1.7,3.8-3.8c0-2.1-1.7-3.8-3.8-3.8h-5c-2.1,0-3.8,1.7-3.8,3.8 C67.7,156.4,69.4,158.1,71.5,158.1z M184.5,150.6h-77.8c-2.1,0-3.8,1.7-3.8,3.8c0,2.1,1.7,3.8,3.8,3.8h77.8c2.1,0,3.8-1.7,3.8-3.8 C188.3,152.3,186.6,150.6,184.5,150.6z M184.5,135.5H126c-2.1,0-3.8,1.7-3.8,3.8c0,2.1,1.7,3.8,3.8,3.8h58.5c2.1,0,3.8-1.7,3.8-3.8 C188.3,137.2,186.6,135.5,184.5,135.5z M184.5,173.2c2.1,0,3.8-1.7,3.8-3.8c0-2.1-1.7-3.8-3.8-3.8h-77.8c-2.1,0-3.8,1.7-3.8,3.8 c0,2.1,1.7,3.8,3.8,3.8H184.5z M71.5,143.1h5c2.1,0,3.8-1.7,3.8-3.8c0-2.1-1.7-3.8-3.8-3.8h-5c-2.1,0-3.8,1.7-3.8,3.8 C67.7,141.4,69.4,143.1,71.5,143.1z"/> <path fill="#264a6a" d="M148.1,105.4c0,2.8,2.8,5,6.3,5s6.3-2.3,6.3-5s-2.8-5-6.3-5S148.1,102.6,148.1,105.4z"/> <path fill="#082846" d="M140.6,105.4c0,6.9,6.2,12.6,13.8,12.6c7.6,0,13.8-5.6,13.8-12.6V66.6c2,0.7,4.2,0.9,5.9,1.1 c5,0.5,6.7,0.7,6.7,6.3c0,2.1,1.7,3.8,3.8,3.8s3.8-1.7,3.8-3.8c0-12.3-8.4-13.2-13.4-13.8c-5-0.5-6.7-0.7-6.7-6.3 c0-2.1-1.7-3.8-3.8-3.8s-3.8,1.7-3.8,3.8v40.3c-1.9-0.9-4-1.4-6.3-1.4C146.7,92.9,140.6,98.5,140.6,105.4L140.6,105.4z  M160.6,105.4c0,2.8-2.8,5-6.3,5s-6.3-2.3-6.3-5s2.8-5,6.3-5S160.6,102.6,160.6,105.4z"/> <path fill="#082846" d="M71.5,87.8h77.8c2.1,0,3.8-1.7,3.8-3.8c0-2.1-1.7-3.8-3.8-3.8H71.5c-2.1,0-3.8,1.7-3.8,3.8 C67.7,86.1,69.4,87.8,71.5,87.8z M184.5,80.3h-5c-2.1,0-3.8,1.7-3.8,3.8c0,2.1,1.7,3.8,3.8,3.8h5c2.1,0,3.8-1.7,3.8-3.8 C188.3,82,186.6,80.3,184.5,80.3z M71.5,102.9h60.8c2.1,0,3.8-1.7,3.8-3.8c0-2.1-1.7-3.8-3.8-3.8H71.5c-2.1,0-3.8,1.7-3.8,3.8 C67.7,101.2,69.4,102.9,71.5,102.9z M184.5,95.4h-5c-2.1,0-3.8,1.7-3.8,3.8c0,2.1,1.7,3.8,3.8,3.8h5c2.1,0,3.8-1.7,3.8-3.8 C188.3,97,186.6,95.4,184.5,95.4z M71.5,72.8h77.8c2.1,0,3.8-1.7,3.8-3.8s-1.7-3.8-3.8-3.8H71.5c-2.1,0-3.8,1.7-3.8,3.8 S69.4,72.8,71.5,72.8z"/> <path fill="#082846" d="M217.6,196.8c0.1-0.1,0.1-0.1,0.2-0.2c0,0,0,0,0-0.1c0.1-0.1,0.1-0.2,0.1-0.2c0,0,0,0,0,0 c0-0.1,0.1-0.2,0.1-0.3c0,0,0,0,0,0c0-0.1,0.1-0.2,0.1-0.3c0,0,0,0,0,0c0-0.1,0.1-0.2,0.1-0.3c0,0,0-0.1,0-0.1c0-0.1,0-0.2,0-0.3 c0-0.1,0-0.3,0-0.4V13.8c0-2.1-1.7-3.8-3.8-3.8H41.4c-2.1,0-3.8,1.7-3.8,3.8c0,0,0,0,0,0v228.5c0,2.1,1.7,3.8,3.8,3.8h125.5 c0.1,0,0.3,0,0.4,0c0.1,0,0.2,0,0.3,0c0,0,0.1,0,0.1,0c0.1,0,0.2,0,0.3-0.1c0,0,0,0,0,0c0.1,0,0.2-0.1,0.3-0.1l0,0 c0.1,0,0.2-0.1,0.3-0.1c0,0,0,0,0,0c0.1,0,0.2-0.1,0.3-0.1c0,0,0,0,0.1,0c0.1,0,0.1-0.1,0.2-0.2c0,0,0.1,0,0.1-0.1 c0.1-0.1,0.1-0.1,0.2-0.2c0,0,0,0,0.1-0.1l47.7-47.7c0,0,0,0,0.1-0.1C217.4,197.1,217.5,197,217.6,196.8 C217.5,196.9,217.6,196.9,217.6,196.8z M45.1,17.5h165.7v173.2h-43.9c-2.1,0-3.8,1.7-3.8,3.8c0,0,0,0,0,0v43.9h-118V17.5z  M170.7,198.3h34.8l-34.8,34.8V198.3z"/></g>
</svg>