<?xml version="1.0" encoding="UTF-8"?>
<svg version="1.1" xmlns="http://www.w3.org/2000/svg" width="512" height="512">
<path d="M0 0 C3.37640809 -0.00437516 6.75150671 -0.04084677 10.12768555 -0.07861328 C24.08514341 -0.15105981 36.99812317 1.18779193 50.57885742 4.37060547 C51.75311279 4.62745117 52.92736816 4.88429688 54.13720703 5.14892578 C101.74033055 15.7792321 143.31394931 38.83269709 178.57885742 72.37060547 C179.42867188 73.17739746 179.42867188 73.17739746 180.2956543 74.00048828 C188.38315312 81.73499682 195.65152427 89.76654142 202.34692383 98.73291016 C203.50052409 100.2664715 204.68514861 101.77655645 205.87182617 103.28466797 C212.53660158 111.84860947 218.13639885 120.99512808 223.57885742 130.37060547 C223.9760498 131.05219727 224.37324219 131.73378906 224.7824707 132.43603516 C239.68616163 158.3505195 249.24129705 187.84039501 253.57885742 217.37060547 C253.75618408 218.57523438 253.93351074 219.77986328 254.11621094 221.02099609 C255.71518243 232.678279 255.93726272 244.24246644 255.89135742 255.99560547 C255.8886232 257.45043839 255.8886232 257.45043839 255.88583374 258.93466187 C255.84044052 273.28616602 255.33509212 287.25003464 252.57885742 301.37060547 C252.41788574 302.26763184 252.25691406 303.1646582 252.09106445 304.08886719 C243.28107593 352.77653671 219.83779195 397.80066455 185.57885742 433.37060547 C184.9467334 434.02996094 184.31460937 434.68931641 183.66333008 435.36865234 C174.51888263 444.85690852 165.22151733 453.59680987 154.57885742 461.37060547 C153.42780726 462.22866699 152.27676565 463.08673998 151.12573242 463.94482422 C142.93455128 469.98297376 134.42081637 475.34156067 125.57885742 480.37060547 C124.94705566 480.73508789 124.31525391 481.09957031 123.66430664 481.47509766 C97.63490458 496.37346216 68.21775253 506.01708089 38.57885742 510.37060547 C37.37422852 510.54793213 36.16959961 510.72525879 34.9284668 510.90795898 C23.27118389 512.50693047 11.70699645 512.72901076 -0.04614258 512.68310547 C-1.50097549 512.68037125 -1.50097549 512.68037125 -2.98519897 512.67758179 C-17.33670313 512.63218856 -31.30057175 512.12684017 -45.42114258 509.37060547 C-46.31816895 509.20963379 -47.21519531 509.04866211 -48.1394043 508.8828125 C-91.74426227 500.992554 -132.88104729 481.30295604 -166.42114258 452.37060547 C-167.1662207 451.73638672 -167.91129883 451.10216797 -168.67895508 450.44873047 C-182.1839409 438.63759032 -194.85533001 425.88700319 -205.42114258 411.37060547 C-206.27763324 410.22065716 -207.13440691 409.07091958 -207.99145508 407.92138672 C-214.03262921 399.72971091 -219.40409314 391.22222047 -224.42114258 382.37060547 C-224.8180127 381.6793457 -225.21488281 380.98808594 -225.6237793 380.27587891 C-247.07724507 342.57700808 -256.90209191 299.87371206 -256.73364258 256.74560547 C-256.73181976 255.77571686 -256.72999695 254.80582825 -256.7281189 253.80654907 C-256.68272567 239.45504492 -256.17737728 225.49117629 -253.42114258 211.37060547 C-253.17968506 210.02506592 -253.17968506 210.02506592 -252.93334961 208.65234375 C-242.11076269 148.84221643 -208.05299801 91.32814718 -159.42114258 54.37060547 C-158.88086426 53.95391602 -158.34058594 53.53722656 -157.78393555 53.10791016 C-147.78893098 45.42461817 -137.32905222 38.68217579 -126.42114258 32.37060547 C-125.74390137 31.97631348 -125.06666016 31.58202148 -124.36889648 31.17578125 C-101.45026698 17.99349374 -75.87541695 9.38799629 -50.04614258 4.05810547 C-49.33546631 3.91066895 -48.62479004 3.76323242 -47.89257812 3.61132812 C-32.00636726 0.57945927 -16.13294694 -0.00233051 0 0 Z " fill="#896AAA" transform="translate(256.421142578125,-0.37060546875)"/>
<path d="M0 0 C-2 2 -2 2 -5.0625 3.25 C-15.23605528 7.53137118 -20.78524956 13.39479313 -25.56842041 23.2225647 C-27.90620579 29.59156019 -27.3140131 36.29468777 -27.19433594 42.97802734 C-27.17877566 44.4900415 -27.16477456 46.00207239 -27.15220642 47.51411438 C-27.12337248 50.75805527 -27.08641026 54.00176607 -27.04390717 57.24555588 C-26.97954169 62.38204838 -26.95119741 67.51834815 -26.93096924 72.65518188 C-26.92736916 73.52421217 -26.92376909 74.39324246 -26.92005992 75.288607 C-26.91271128 77.06493228 -26.90541725 78.84125779 -26.89817667 80.61758351 C-26.84737412 92.56640429 -26.77021544 104.51407425 -26.60595703 116.46191406 C-26.49522956 124.53631556 -26.43806329 132.60918522 -26.44165063 140.68436968 C-26.44136112 144.95187507 -26.41393788 149.21528697 -26.32054901 153.48185349 C-25.77573766 179.37305969 -25.77573766 179.37305969 -29.4526825 185.36878204 C-32.83134419 188.87382323 -36.57128388 190.76458481 -41.14057159 192.30786514 C-44.03345638 193.38468337 -46.4219759 195.11306139 -48.9375 196.875 C-49.8965625 197.51566406 -50.855625 198.15632812 -51.84375 198.81640625 C-63.07175417 206.58429528 -73.72564504 215.01673461 -84 224 C-84.87140625 224.75925781 -85.7428125 225.51851562 -86.640625 226.30078125 C-97.05079486 235.51607313 -106.34808417 245.11599901 -114.67236328 256.22802734 C-115.53451018 257.37871917 -116.40237123 258.52515984 -117.27685547 259.66650391 C-142.99517571 293.27806885 -155.68107934 335.07044199 -150.59716797 377.35009766 C-145.18810928 410.80921236 -127.733149 443.08469131 -100.12939453 463.375 C-81.78360861 476.51518521 -63.06022731 484.89839724 -40.75 488.75 C-39.51636719 488.97042969 -38.28273437 489.19085938 -37.01171875 489.41796875 C-34.00922516 489.95329707 -31.00480428 490.47779755 -28 491 C-28 497.93 -28 504.86 -28 512 C-83.19198889 510.04630128 -137.26226383 488.00379797 -179 452 C-179.74507813 451.36578125 -180.49015625 450.7315625 -181.2578125 450.078125 C-194.76279833 438.26698485 -207.43418743 425.51639772 -218 411 C-218.85649066 409.85005169 -219.71326433 408.70031411 -220.5703125 407.55078125 C-226.61148664 399.35910544 -231.98295056 390.851615 -237 382 C-237.39687012 381.30874023 -237.79374023 380.61748047 -238.20263672 379.90527344 C-259.65610249 342.20640261 -269.48094934 299.50310659 -269.3125 256.375 C-269.31067719 255.40511139 -269.30885437 254.43522278 -269.30697632 253.4359436 C-269.26158309 239.08443945 -268.7562347 225.12057082 -266 211 C-265.75854248 209.65446045 -265.75854248 209.65446045 -265.51220703 208.28173828 C-254.68962011 148.47161096 -220.63185543 90.95754171 -172 54 C-171.45972168 53.58331055 -170.91944336 53.16662109 -170.36279297 52.73730469 C-160.3677884 45.0540127 -149.90790964 38.31157032 -139 32 C-138.32275879 31.60570801 -137.64551758 31.21141602 -136.94775391 30.80517578 C-111.23273344 16.01446619 -82.19073981 6.80560151 -53 2 C-52.32533691 1.88285645 -51.65067383 1.76571289 -50.95556641 1.64501953 C-34.20830329 -1.15242601 -16.91690507 -0.18341932 0 0 Z " fill="#896AAA" transform="translate(269,0)"/>
<path d="M0 0 C14.28714203 10.10244658 19.52575926 25.44846578 23.640625 41.8671875 C23.96426025 42.94452148 24.28789551 44.02185547 24.62133789 45.13183594 C27.73709354 56.55005426 28.08483475 68.47160729 28.078125 80.2421875 C28.07852783 80.97608704 28.07893066 81.70998657 28.0793457 82.46612549 C27.96086737 120.26786376 13.25306359 155.43175306 -12.5234375 182.953125 C-12.95886871 183.43111542 -13.39429993 183.90910583 -13.84292603 184.40158081 C-15.359375 185.8671875 -15.359375 185.8671875 -17.35116577 187.15139771 C-20.60244502 189.54654336 -22.90117236 191.85580851 -23.82396317 195.90659714 C-24.59458572 202.31336451 -24.42407921 208.77000599 -24.359375 215.2109375 C-24.36689847 217.30702213 -24.37793676 219.40309683 -24.39233398 221.49914551 C-24.42070398 226.99694566 -24.40151911 232.49357784 -24.37225342 237.99133301 C-24.35082325 243.60888201 -24.37460971 249.22622238 -24.39453125 254.84375 C-24.4269354 265.85182567 -24.40907592 276.85919764 -24.359375 287.8671875 C-23.68290924 287.8598912 -23.00644348 287.85259491 -22.30947876 287.84507751 C-21.41667206 287.83940262 -20.52386536 287.83372772 -19.60400391 287.82788086 C-18.72128815 287.82058456 -17.83857239 287.81328827 -16.92910767 287.80577087 C4.97936041 288.32938339 24.92669749 302.20000237 39.765625 316.984375 C58.02459764 336.45585754 63.55342435 359.64987057 63.04296875 385.546875 C61.82875708 414.77117213 47.15797348 440.6488172 26.0234375 460.30078125 C11.33555972 472.87482499 -4.82040833 479.81110568 -23.359375 484.8671875 C-23.689375 492.4571875 -24.019375 500.0471875 -24.359375 507.8671875 C-34.259375 507.8671875 -44.159375 507.8671875 -54.359375 507.8671875 C-54.359375 500.9371875 -54.359375 494.0071875 -54.359375 486.8671875 C-57.659375 486.5371875 -60.959375 486.2071875 -64.359375 485.8671875 C-100.29990494 480.15070843 -132.04478623 462.10064995 -153.88671875 432.5078125 C-165.02224843 416.82559595 -172.0360137 399.54911773 -176.359375 380.8671875 C-176.55515137 380.02438232 -176.75092773 379.18157715 -176.95263672 378.31323242 C-178.55518572 370.60069919 -178.66790843 363.0365601 -178.609375 355.1796875 C-178.60560852 354.51566925 -178.60184204 353.851651 -178.59796143 353.16751099 C-178.25802198 302.04354095 -153.31945207 260.59176399 -117.93554688 225.25805664 C-113.02058206 220.43528615 -107.76022207 216.13478911 -102.359375 211.8671875 C-101.26235083 210.9594092 -100.16739554 210.04912653 -99.07421875 209.13671875 C-90.28451551 201.86008709 -81.04041742 195.44465766 -71.5 189.19140625 C-70.3269964 188.40329072 -70.3269964 188.40329072 -69.13029575 187.59925365 C-66.359375 185.8671875 -66.359375 185.8671875 -63.49600887 184.53388691 C-60.28998753 182.92376977 -57.90292499 181.41004083 -55.359375 178.8671875 C-53.76574211 173.95384078 -53.94652603 169.11115227 -54.08227539 164.00268555 C-54.08206394 162.49079583 -54.07694938 160.97890009 -54.06732178 159.46704102 C-54.05718561 156.21941869 -54.08166298 152.97458257 -54.1334095 149.72736168 C-54.2152516 144.58633791 -54.22034615 139.44694223 -54.21568298 134.30537415 C-54.21750518 126.16773854 -54.27181131 118.0314183 -54.3479504 109.89417058 C-54.48270814 95.33758927 -54.53341325 80.78063476 -54.55738825 66.22348815 C-54.56792973 61.1203124 -54.60288856 56.01806329 -54.65855134 50.91518629 C-54.6900075 47.73096044 -54.70527988 44.54678782 -54.71697998 41.36243439 C-54.72597047 39.89430236 -54.74188631 38.42619247 -54.76553154 36.95822334 C-54.94412074 25.58659029 -53.34913661 16.69236779 -46.1171875 7.6796875 C-42.931918 4.39532073 -39.31845562 2.11621145 -35.359375 -0.1328125 C-34.70582031 -0.54789062 -34.05226563 -0.96296875 -33.37890625 -1.390625 C-23.28201855 -6.97613735 -9.66672191 -5.73136244 0 0 Z " fill="#FEC73F" transform="translate(295.359375,4.1328125)"/>
<path d="M0 0 C8.14314447 0.47366856 15.8353611 1.60346889 23.75 3.5625 C25.36346313 3.95949097 25.36346313 3.95949097 27.00952148 4.36450195 C72.232605 15.80473767 111.26368191 37.91582324 145 70 C145.56654297 70.53786133 146.13308594 71.07572266 146.71679688 71.62988281 C154.8042957 79.36439135 162.07266685 87.39593596 168.76806641 96.36230469 C169.92166667 97.89586603 171.10629119 99.40595099 172.29296875 100.9140625 C178.95774416 109.478004 184.55754143 118.62452261 190 128 C190.39719238 128.6815918 190.79438477 129.36318359 191.20361328 130.06542969 C206.1073042 155.97991403 215.66243963 185.46978954 220 215 C220.17732666 216.20462891 220.35465332 217.40925781 220.53735352 218.65039062 C222.136325 230.30767354 222.3584053 241.87186098 222.3125 253.625 C222.31067719 254.59488861 222.30885437 255.56477722 222.30697632 256.5640564 C222.26158309 270.91556055 221.7562347 284.87942918 219 299 C218.83902832 299.89702637 218.67805664 300.79405273 218.51220703 301.71826172 C209.70221851 350.40593124 186.25893453 395.43005908 152 431 C151.36787598 431.65935547 150.73575195 432.31871094 150.08447266 432.99804688 C140.94002521 442.48630305 131.64265991 451.2262044 121 459 C119.84894983 459.85806152 118.69790823 460.71613451 117.546875 461.57421875 C109.35569386 467.61236829 100.84195895 472.97095521 92 478 C91.36819824 478.36448242 90.73639648 478.72896484 90.08544922 479.10449219 C57.87887719 497.53846345 18.34946427 510 -19 510 C-19 502.41 -19 494.82 -19 487 C-16.03 486.01 -13.06 485.02 -10 484 C18.64569208 474.24031195 40.91779908 457.26816007 55.3125 430.3125 C55.64830078 429.68448486 55.98410156 429.05646973 56.33007812 428.40942383 C57.77853858 425.6243433 59.03373858 422.90055334 60.04296875 419.92578125 C63.18295893 410.73650387 69.80780473 408.14098502 78.01660156 404.0234375 C93.00263694 396.29061373 106.47992297 384.11592895 117.99609375 371.9140625 C120 370 120 370 122 370 C122.37898438 369.13375 122.37898438 369.13375 122.765625 368.25 C124.14968796 365.72715107 125.73787462 364.05751166 127.75 362 C163.16299595 323.11959995 180.4748351 269.01406613 179 217 C178.98598145 216.29762207 178.97196289 215.59524414 178.95751953 214.87158203 C177.80206097 163.20948104 156.78976729 111.49243898 120 74.9375 C119.2575 74.23947266 119.2575 74.23947266 118.5 73.52734375 C117 72 117 72 115.1328125 69.5859375 C112.90902482 66.88969676 110.60473834 64.8641281 107.875 62.6875 C106.89789063 61.90632813 105.92078125 61.12515625 104.9140625 60.3203125 C103.47160156 59.17175781 103.47160156 59.17175781 102 58 C101.20335937 57.33742187 100.40671875 56.67484375 99.5859375 55.9921875 C86.55374247 45.22646117 71.90612023 35.93608276 56.5 29 C55.55092773 28.57066162 54.60185547 28.14132324 53.62402344 27.69897461 C44.02304066 23.43695358 34.13572145 19.72303767 23.91015625 17.25390625 C17.99522917 15.82187127 15.45493758 13.81261531 11.73046875 9 C9.40321399 6.31026087 6.7759817 4.73660269 3.69921875 3.0078125 C2 2 2 2 0 0 Z " fill="#6C4E93" transform="translate(290,2)"/>
<path d="M0 0 C-2.17885887 2.17885887 -4.16257462 2.89587115 -6.98828125 4.0078125 C-9.23120629 5.11403184 -10.83243121 6.52511226 -12.75 8.125 C-18.00411703 11.73388846 -22.93757381 11.54347154 -29.08740234 11.67944336 C-52.29162441 12.28517606 -75.67844641 19.07631689 -97 28 C-97.6585498 28.27505371 -98.31709961 28.55010742 -98.99560547 28.83349609 C-120.50241158 37.99753532 -139.68554671 51.21756266 -156.828125 67.015625 C-158.73861763 68.76118302 -160.69004214 70.41857451 -162.6875 72.0625 C-166.54936853 75.35855989 -169.74480858 79.11603921 -173 83 C-173.77472656 83.89847656 -174.54945313 84.79695313 -175.34765625 85.72265625 C-200.36105168 115.06603667 -218.14763824 151.76345671 -224 190 C-224.17136475 191.10311523 -224.17136475 191.10311523 -224.34619141 192.22851562 C-232.47390248 247.85818256 -218.55262535 305.05073776 -185.40844727 350.44213867 C-180.76712092 356.67072325 -175.91772697 362.56124306 -170.546875 368.1796875 C-169 370 -169 370 -169 372 C-168.46246094 372.20753906 -167.92492187 372.41507812 -167.37109375 372.62890625 C-163.46349237 374.88849123 -160.59885443 378.32384471 -157.50976562 381.56835938 C-155.14429382 384.00596755 -153.37228248 385.81841185 -150.28515625 387.32421875 C-146.65095374 389.98930059 -146.38715346 393.63098037 -145.375 397.875 C-136.51204623 430.74040846 -112.79836815 456.89393517 -84 474 C-70.26585741 481.52652116 -56.17747497 486.08662484 -40.75 488.75 C-39.51636719 488.97042969 -38.28273437 489.19085938 -37.01171875 489.41796875 C-34.00922516 489.95329707 -31.00480428 490.47779755 -28 491 C-28 497.93 -28 504.86 -28 512 C-83.19198889 510.04630128 -137.26226383 488.00379797 -179 452 C-179.74507813 451.36578125 -180.49015625 450.7315625 -181.2578125 450.078125 C-194.76279833 438.26698485 -207.43418743 425.51639772 -218 411 C-218.85649066 409.85005169 -219.71326433 408.70031411 -220.5703125 407.55078125 C-226.61148664 399.35910544 -231.98295056 390.851615 -237 382 C-237.39687012 381.30874023 -237.79374023 380.61748047 -238.20263672 379.90527344 C-259.65610249 342.20640261 -269.48094934 299.50310659 -269.3125 256.375 C-269.31067719 255.40511139 -269.30885437 254.43522278 -269.30697632 253.4359436 C-269.26158309 239.08443945 -268.7562347 225.12057082 -266 211 C-265.75854248 209.65446045 -265.75854248 209.65446045 -265.51220703 208.28173828 C-254.68962011 148.47161096 -220.63185543 90.95754171 -172 54 C-171.45972168 53.58331055 -170.91944336 53.16662109 -170.36279297 52.73730469 C-160.3677884 45.0540127 -149.90790964 38.31157032 -139 32 C-138.32275879 31.60570801 -137.64551758 31.21141602 -136.94775391 30.80517578 C-111.23273344 16.01446619 -82.19073981 6.80560151 -53 2 C-52.32533691 1.88285645 -51.65067383 1.76571289 -50.95556641 1.64501953 C-34.20830329 -1.15242601 -16.91690507 -0.18341932 0 0 Z " fill="#6C4E93" transform="translate(269,0)"/>
<path d="M0 0 C0 25.74 0 51.48 0 78 C-7.425 81.96 -7.425 81.96 -15 86 C-32.10732699 98.33318923 -42.65156608 114.37127023 -47 135 C-47.4133275 138.96946626 -47.47794184 142.88634317 -47.4375 146.875 C-47.42992676 147.9271167 -47.42235352 148.9792334 -47.41455078 150.06323242 C-47.06530045 166.55830013 -40.47394935 181.06323589 -29 193 C-20.1855187 200.72962206 -11.0379899 205.32067003 0 209 C0 219.56 0 230.12 0 241 C-28.19454232 238.43685979 -52.13593661 226.28260802 -70.75 204.91015625 C-80.68931595 192.94237046 -86.76163867 178.86637347 -91 164 C-91.47953125 162.39511719 -91.47953125 162.39511719 -91.96875 160.7578125 C-99.53232019 131.5540276 -90.89491223 99.46621645 -76.0625 74 C-70.01273089 63.98563249 -63.04839449 54.89210866 -55.10546875 46.29296875 C-53.23791796 44.25910546 -51.4601578 42.17852977 -49.6875 40.0625 C-41.17498468 30.34501676 -13.28573341 0 0 0 Z " fill="#896AAA" transform="translate(241,219)"/>
<path d="M0 0 C17.78302968 2.22287871 32.983854 8.47526636 44.34326172 22.6796875 C54.92052909 36.9713258 59.18700736 53.50247465 56.69970703 71.12792969 C54.00118205 85.57277296 48.24854211 98.56245385 39 110 C38.48050781 110.69480469 37.96101563 111.38960938 37.42578125 112.10546875 C28.25310231 123.6810661 14.05537143 131.48615714 0 135 C0 125.43 0 115.86 0 106 C2.454375 104.845 4.90875 103.69 7.4375 102.5 C20.59419906 96.03440701 30.09264454 86.62546444 35.22265625 72.64453125 C37.50755486 64.87128323 40.16466456 54.89480044 36.4375 47.3125 C34.04925974 43.57877226 31.16717913 41.47076911 27 40 C21.76579929 39.35720342 18.42668442 40.14724782 14 43 C9.46760739 46.90289364 9.40171033 51.23731111 8.625 56.84765625 C7.6709844 61.65947244 5.73225629 65.92999212 3 70 C1.515 70.99 1.515 70.99 0 72 C0 48.24 0 24.48 0 0 Z " fill="#8B6BA8" transform="translate(271,322)"/>
<path d="M0 0 C3.0625 0.5625 3.0625 0.5625 5.0625 3.0703125 C7.39289283 6.82813337 8.78128456 10.80595182 10.125 15 C10.38104004 15.79857422 10.63708008 16.59714844 10.90087891 17.41992188 C17.82163688 39.53462908 18.43322018 62.19954468 12.0625 84.5625 C11.78962158 85.5525 11.78962158 85.5525 11.51123047 86.5625 C8.03360977 98.8942238 2.54965473 111.11268619 -4.9375 121.5625 C-5.2675 121.5625 -5.5975 121.5625 -5.9375 121.5625 C-6.0075438 106.22906153 -6.06046544 90.89563044 -6.09293652 75.56206799 C-6.10841335 68.4426101 -6.12951832 61.32325155 -6.16381836 54.20385742 C-6.1968839 47.33743151 -6.21433723 40.47110903 -6.22213173 33.60460854 C-6.22768873 30.98065882 -6.23853969 28.35671496 -6.25469017 25.73280907 C-6.27636421 22.06678269 -6.27947108 18.40118722 -6.27807617 14.73510742 C-6.288862 13.6425061 -6.29964783 12.54990479 -6.3107605 11.42419434 C-6.30663651 10.42720016 -6.30251251 9.43020599 -6.29826355 8.40299988 C-6.30102893 7.53559268 -6.30379431 6.66818548 -6.30664349 5.77449322 C-5.64584042 1.81480831 -3.8040741 0.72843972 0 0 Z " fill="#8C6CA8" transform="translate(276.9375,30.4375)"/>
<path d="M0 0 C4.65711584 1.48487751 9.23358333 3.06429768 13.75 4.9375 C29.98761574 11.46730572 47.14937494 14.79145 64.52807617 16.40478516 C69.90946283 16.90946283 69.90946283 16.90946283 71 18 C71.08700342 19.63472882 71.10701063 21.27314055 71.09765625 22.91015625 C71.09282227 24.39418945 71.09282227 24.39418945 71.08789062 25.90820312 C71.07532227 27.46958008 71.07532227 27.46958008 71.0625 29.0625 C71.05798828 30.10728516 71.05347656 31.15207031 71.04882812 32.22851562 C71.03699913 34.8190666 71.02051689 37.40950559 71 40 C43.68704265 37.74692254 19.54292263 24.95785606 1.63671875 4.26953125 C0 2 0 2 0 0 Z " fill="#6D4F93" transform="translate(169,420)"/>
<path d="M0 0 C0 21.12 0 42.24 0 64 C-9.19740862 58.74433793 -14.08512799 52.99920173 -17.33984375 42.8828125 C-20.07730714 30.92868244 -16.85341899 20.30928072 -10.5625 10.0625 C-3.7863078 0 -3.7863078 0 0 0 Z " fill="#8D6DA6" transform="translate(241,332)"/>
<path d="M0 0 C-8.8447803 11.96646747 -22.92206634 19.97773324 -37 24 C-37 17.73 -37 11.46 -37 5 C-34.86917969 4.65066406 -32.73835938 4.30132812 -30.54296875 3.94140625 C-28.47768555 3.60109266 -26.41254298 3.25993778 -24.34741211 2.91870117 C-22.91298676 2.6821434 -21.47841702 2.44645943 -20.04370117 2.21166992 C-17.9805701 1.87388488 -15.91798003 1.53295273 -13.85546875 1.19140625 C-12.61434326 0.98717041 -11.37321777 0.78293457 -10.09448242 0.57250977 C-2.61442772 -0.81137412 -2.61442772 -0.81137412 0 0 Z " fill="#6D4F93" transform="translate(309,433)"/>
</svg>
