<?xml version="1.0" encoding="UTF-8"?>
<svg version="1.1" xmlns="http://www.w3.org/2000/svg" width="512" height="512">
<path d="M0 0 C0.83273437 0.65871094 1.66546875 1.31742188 2.5234375 1.99609375 C24.43305941 20.45149599 26.50748098 50.3156081 29 77 C43.24147964 244.77102062 43.24147964 244.77102062 10.8828125 287.81640625 C-1.29735401 302.17302874 -16.60367251 308.55636985 -35 311.0625 C-36.19761963 311.2260498 -37.39523926 311.38959961 -38.62915039 311.55810547 C-121.82809264 322.21863623 -208.59748324 319.75820984 -413.8515625 299.71484375 C-414.56054688 299.14894531 -415.26953125 298.58304687 -416 298 C-416.83273437 297.34128906 -417.66546875 296.68257813 -418.5234375 296.00390625 C-440.43305941 277.54850401 -442.50748098 247.6843919 -445 221 C-459.3612312 51.81825234 -459.3612312 51.81825234 -426.7421875 10.11328125 C-406.54361738 -13.09291295 -377.90920898 -14.16743169 -349.12712097 -16.28492737 C-345.21705954 -16.54435465 -341.30633677 -16.78824786 -337.39453125 -17.01953125 C-336.33496625 -17.08289232 -336.33496625 -17.08289232 -335.2539959 -17.14753342 C-320.19806716 -18.04209975 -305.13843718 -18.67421676 -290.0625 -19.125 C-289.37976013 -19.14568039 -288.69702026 -19.16636078 -287.99359131 -19.18766785 C-93.6638977 -25.03437161 -93.6638977 -25.03437161 0 0 Z " fill="#FE0000" transform="translate(464,107)"/>
<path d="M0 0 C3.80515674 1.52206269 7.10468548 3.0744605 10.65625 5.0546875 C11.75050293 5.6633667 12.84475586 6.2720459 13.97216797 6.89916992 C15.1482004 7.55762204 16.32414231 8.21623587 17.5 8.875 C18.71884468 9.55521641 19.93775822 10.23530944 21.15673828 10.9152832 C30.97631216 16.39968443 40.75073198 21.96185734 50.50244141 27.56591797 C54.68513699 29.96759479 58.87412653 32.35824357 63.0625 34.75 C68.95556278 38.11650706 74.84762775 41.4847475 80.73828125 44.85546875 C92.18759387 51.40572761 103.64283331 57.94492298 115.125 64.4375 C116.09679199 64.98720459 117.06858398 65.53690918 118.06982422 66.10327148 C118.95686035 66.60415283 119.84389648 67.10503418 120.7578125 67.62109375 C121.5327002 68.0586499 122.30758789 68.49620605 123.10595703 68.94702148 C124.3884493 69.66001312 125.68755389 70.34377694 127 71 C127 71.66 127 72.32 127 73 C126.51982422 73.25990723 126.03964844 73.51981445 125.54492188 73.78759766 C115.45469563 79.26223358 105.45509893 84.86277745 95.5625 90.6875 C86.62265822 95.94700028 77.59665174 101.01935222 68.5 106 C59.55192607 110.89988744 50.66733085 115.88617415 41.875 121.0625 C33.04154805 126.2613428 24.14345073 131.32874162 15.1875 136.3125 C14.59443054 136.643638 14.00136108 136.974776 13.39031982 137.31594849 C11.7136695 138.25132655 10.03462047 139.18240105 8.35546875 140.11328125 C7.39278076 140.64735596 6.43009277 141.18143066 5.43823242 141.73168945 C3 143 3 143 0 144 C0 96.48 0 48.96 0 0 Z " fill="#F1EFEF" transform="translate(206,184)"/>
</svg>
